<svg width="101" height="99" viewBox="0 0 101 99" fill="none" xmlns="http://www.w3.org/2000/svg">
<path d="M0 27C0 12.0883 12.0883 0 27 0H101V71.0511C101 85.9628 88.9117 98.0511 74 98.0511H27C12.0883 98.0511 0 85.9628 0 71.0511V27Z" fill="url(#paint0_linear_407_80825)" fill-opacity="0.1"/>
<g clip-path="url(#clip0_407_80825)">
<path d="M30.9642 9.95251C20.1723 9.95251 11.4277 18.6971 11.4277 29.489V68.562C11.4277 79.3539 20.1723 88.0985 30.9642 88.0985H70.0372C80.8291 88.0985 89.5737 79.3539 89.5737 68.562V9.95251H30.9642Z" fill="#B1EC52"/>
<path d="M76.0041 39.2494H66.6247L57.7055 49.0255V29.489H50.4686V34.2184C50.2306 33.9169 49.9766 33.6154 49.7069 33.3138C47.0724 30.5206 43.2793 29.1082 38.423 29.1082C32.8207 29.1082 29.6308 31.6157 27.9326 33.7264C25.8377 36.3451 24.9014 39.9159 25.5521 42.8202C27.2343 50.3428 34.2173 51.5489 39.3435 52.2155C43.3904 52.7392 47.2628 53.4851 47.1676 57.0877C47.0565 60.8331 42.835 61.7536 40.0576 61.7536C32.8366 61.7536 32.5985 56.4212 32.5985 56.4212H24.8379C24.949 58.4208 25.5521 61.6425 28.0278 64.404C30.7258 67.4352 34.7886 68.9588 40.0735 68.9588C44.1363 68.9588 47.8341 67.6415 50.4686 65.2927V68.5144H57.7055V59.2937L60.2607 56.4846L67.5769 68.5144H76.0041L65.3551 50.9141L76.0041 39.2494ZM32.789 41.1538C32.1542 38.3606 34.9315 35.8848 38.5499 35.8848C41.8034 35.8848 45.0568 36.6149 46.2947 41.1379H50.4528V48.0574C45.2631 43.7883 33.9951 46.4704 32.789 41.1538Z" fill="#4D5759"/>
</g>
<defs>
<linearGradient id="paint0_linear_407_80825" x1="50.5" y1="0" x2="50.5" y2="98.0511" gradientUnits="userSpaceOnUse">
<stop stop-color="white" stop-opacity="0"/>
<stop offset="1" stop-color="#999999"/>
</linearGradient>
<clipPath id="clip0_407_80825">
<rect width="78.146" height="78.146" fill="white" transform="translate(11.4277 9.95251)"/>
</clipPath>
</defs>
</svg>
